ply
format ascii 1.0
comment Created by Blender 2.72 (sub 0) - www.blender.org, source file: 'plane.blend'
element vertex 6
property float x
property float y
property float z
property float nx
property float ny
property float nz
property float s
property float t
element face 4
property list uchar uint vertex_indices
end_header
1.000000 -1.000000 0.000000 0.000000 0.000000 1.000000 0.029219 0.179424
1.000000 1.000000 0.000000 0.000000 -0.707083 0.707083 0.664170 0.179424
-1.000000 1.000000 0.000000 0.000000 -0.707083 0.707083 0.664170 0.814375
1.000000 1.000000 1.000000 0.000000 -1.000000 0.000000 0.981646 0.179424
-1.000000 1.000000 1.000000 0.000000 -1.000000 0.000000 0.981646 0.814375
-1.000000 -1.000000 0.000000 0.000000 0.000000 1.000000 0.029219 0.814375
3 0 1 2
3 1 3 4
3 5 0 2
3 2 1 4
